<svg xmlns="http://www.w3.org/2000/svg" version="1.1" xmlns:xlink="http://www.w3.org/1999/xlink" xmlns:svgjs="http://svgjs.dev/svgjs" width="1000" height="1000" viewBox="0 0 1000 1000"><rect width="1000" height="1000" fill="#000000"></rect><g transform="matrix(0.7,0,0,0.7,149.57575757575756,282.1265587044535)"><svg viewBox="0 0 396 247" data-background-color="#ed2647" preserveAspectRatio="xMidYMid meet" height="623" width="1000" xmlns="http://www.w3.org/2000/svg" xmlns:xlink="http://www.w3.org/1999/xlink"><g id="tight-bounds" transform="matrix(1,0,0,1,0.2400000000000091,-0.09999999999999432)"><svg viewBox="0 0 395.52 247.2" height="247.2" width="395.52"><g><svg></svg></g><g><svg viewBox="0 0 395.52 247.2" height="247.2" width="395.52"><g><g><path xmlns="http://www.w3.org/2000/svg" d="M175.218 247.2c-24.198 0-44.066-0.509-59.603-1.528h-0.382l0.938-25.875h149.288c-16.429 18.268-46.509 27.403-90.241 27.403zM115.233 0.382l76.414-0.382c23.688 0 42.104 5.145 55.247 15.436 4.39 3.468 8.044 7.457 10.963 11.967l-142.203 0z" fill="#ffffff" fill-rule="nonzero" stroke="none" stroke-width="1" stroke-linecap="butt" stroke-linejoin="miter" stroke-miterlimit="10" stroke-dasharray="" stroke-dashoffset="0" font-family="none" font-weight="none" font-size="none" text-anchor="none" style="mix-blend-mode: normal" data-fill-palette-color="tertiary"></path></g></g><g transform="matrix(1,0,0,1,65.76225602934363,37.08)"><svg viewBox="0 0 263.9954879413127 173.04" height="173.04" width="263.9954879413127"><g><svg viewBox="0 0 395.52 259.24981269079365" height="173.04" width="263.9954879413127"><g transform="matrix(1,0,0,1,0,156.49957317093725)"><svg viewBox="0 0 395.52 102.75023951985636" height="102.75023951985636" width="395.52"><g id="textblocktransform"><svg viewBox="0 0 395.52 102.75023951985636" height="102.75023951985636" width="395.52" id="textblock"><g><svg viewBox="0 0 395.52 61.415570216776615" height="61.415570216776615" width="395.52"><g transform="matrix(1,0,0,1,0,0)"><svg width="395.52" viewBox="4.300000190734863 -32.5 212.17999267578125 32.95000076293945" height="61.415570216776615" data-palette-color="#ffffff"><path d="M19.3-16.7Q22.65-16 24.28-14.08 25.9-12.15 25.9-9L25.9-9Q25.9 0.2 12.15 0.2L12.15 0.2Q7.4 0.2 4.35 0L4.35 0 4.3 0 4.65-9.65 4.3-32.1 14.3-32.15Q18.95-32.15 21.53-30.13 24.1-28.1 24.1-24.25L24.1-24.25Q24.1-21.55 22.85-19.63 21.6-17.7 19.3-16.7L19.3-16.7ZM18.8-23.65Q18.8-26.05 17.45-27.1 16.1-28.15 12.9-28.15L12.9-28.15 9.5-28.15 9.35-18.3 14.5-18.15Q16.7-18.7 17.75-20.03 18.8-21.35 18.8-23.65L18.8-23.65ZM13-3.8Q16.7-3.8 18.7-5.2 20.7-6.6 20.7-9.3L20.7-9.3Q20.7-13.6 15.15-14.35L15.15-14.35 9.3-14.3 9.25-10.1 9.4-3.95Q11.35-3.8 13-3.8L13-3.8ZM44.1-32.5Q50.75-32.5 54.35-28.4 57.95-24.3 57.95-16.7L57.95-16.7Q57.95-8.5 54.1-4.03 50.25 0.45 43.15 0.45L43.15 0.45Q36.55 0.45 32.97-3.78 29.4-8 29.4-15.75L29.4-15.75Q29.4-23.8 33.22-28.15 37.05-32.5 44.1-32.5L44.1-32.5ZM43.7-28.3Q39.15-28.3 36.92-25.38 34.7-22.45 34.7-16.35L34.7-16.35Q34.7-9.7 36.87-6.63 39.05-3.55 43.6-3.55L43.6-3.55Q48.2-3.55 50.4-6.5 52.6-9.45 52.6-15.7L52.6-15.7Q52.6-22.25 50.42-25.28 48.25-28.3 43.7-28.3L43.7-28.3ZM76.05-32.5Q82.7-32.5 86.3-28.4 89.9-24.3 89.9-16.7L89.9-16.7Q89.9-8.5 86.05-4.03 82.2 0.45 75.1 0.45L75.1 0.45Q68.5 0.45 64.92-3.78 61.35-8 61.35-15.75L61.35-15.75Q61.35-23.8 65.17-28.15 69-32.5 76.05-32.5L76.05-32.5ZM75.65-28.3Q71.1-28.3 68.87-25.38 66.65-22.45 66.65-16.35L66.65-16.35Q66.65-9.7 68.82-6.63 71-3.55 75.55-3.55L75.55-3.55Q80.15-3.55 82.35-6.5 84.55-9.45 84.55-15.7L84.55-15.7Q84.55-22.25 82.37-25.28 80.2-28.3 75.65-28.3L75.65-28.3ZM101.04-32.1L100.79-10.1 100.99 0 95.84 0 96.09-9.65 95.84-32.1 101.04-32.1ZM118.89-32.1L106.54-17Q112.34-9.2 119.79-1.1L119.79-1.1 119.74-0.5Q117.54 0.1 114.79 0.45L114.79 0.45 114.14 0.15Q106.54-9.15 101.24-16.75L101.24-16.75 101.24-17.1 111.24-29.2 113.24-32.1 118.89-32.1ZM134.89-32.45Q139.79-32.45 143.54-30.25L143.54-30.25 142.59-25.7 142.09-25.55Q138.74-28.15 134.69-28.15L134.69-28.15Q130.29-28.15 127.97-25.18 125.64-22.2 125.64-16.3L125.64-16.3Q125.64-10.25 127.99-7.1 130.34-3.95 134.69-3.95L134.69-3.95Q136.79-3.95 138.87-4.67 140.94-5.4 142.69-6.7L142.69-6.7 143.19-6.4 142.79-1.7Q138.49 0.4 134.29 0.4L134.29 0.4Q127.54 0.4 123.89-3.8 120.24-8 120.24-15.75L120.24-15.75Q120.24-23.75 124.07-28.1 127.89-32.45 134.89-32.45L134.89-32.45ZM154.09-32.1L153.79-10.1 154.04 0 148.79 0 149.14-9.65 148.79-32.1 154.09-32.1ZM188.54-32.2L188.24-9.6 188.39 0 182.84 0 167.74-24.05 167.39-24.05 167.34-10.75 167.49 0 162.79 0 163.04-9.5 162.84-32.1 168.29-32.1 183.44-8.05 183.84-8.05 183.74-31.85 188.54-32.2ZM208.38-4.15L216.13-4.4 216.43-3.95 216.08 0 197.13 0 197.48-9.65 197.13-32.1 216.18-32.1 216.48-31.65 216.08-27.7 208.48-27.9 202.38-27.85 202.23-18.5 208.03-18.4 213.33-18.55 213.68-18.15 213.28-14.2 207.63-14.35 202.18-14.25 202.13-10.1 202.28-4.2 208.38-4.15Z" opacity="1" transform="matrix(1,0,0,1,0,0)" fill="#ffffff" class="undefined-text-0" data-fill-palette-color="primary" id="text-0"></path></svg></g></svg></g><g transform="matrix(1,0,0,1,75.54432000000001,75.91431237127237)"><svg viewBox="0 0 244.43135999999996 26.835927148583988" height="26.835927148583988" width="244.43135999999996"><g transform="matrix(1,0,0,1,0,0)"><svg width="244.43135999999996" viewBox="2.25 -36.5 386.6300048828125 42.45000076293945" height="26.835927148583988" data-palette-color="#ffffff"><path d="M15.1-4.5L14.6-4.5 14.6-31.5 15.1-31.5 15.1-18.25 34.3-18.25 34.3-31.5 34.8-31.5 34.8-4.5 34.3-4.5 34.3-17.75 15.1-17.75 15.1-4.5ZM11 0L18.75 0Q19.7 0 20.13-0.43 20.55-0.85 20.55-1.8L20.55-1.8 20.55-12.9 28.9-12.9 28.9-1.8Q28.9-0.85 29.33-0.43 29.75 0 30.7 0L30.7 0 38.45 0Q39.4 0 39.83-0.43 40.25-0.85 40.25-1.8L40.25-1.8 40.25-34.2Q40.25-35.15 39.83-35.58 39.4-36 38.45-36L38.45-36 30.7-36Q29.75-36 29.33-35.58 28.9-35.15 28.9-34.2L28.9-34.2 28.9-23.35 20.55-23.35 20.55-34.2Q20.55-35.15 20.13-35.58 19.7-36 18.75-36L18.75-36 11-36Q10.05-36 9.63-35.58 9.2-35.15 9.2-34.2L9.2-34.2 9.2-1.8Q9.2-0.85 9.63-0.43 10.05 0 11 0L11 0ZM20.35 0.05L20.35 0.05 13.85 5.45Q13.65 5.65 13.23 5.8 12.8 5.95 12.3 5.95L12.3 5.95 4.55 5.95Q3.35 5.95 2.8 5.4 2.25 4.85 2.25 3.65L2.25 3.65 2.25-28.75Q2.25-29.4 2.43-29.85 2.6-30.3 2.95-30.6L2.95-30.6 9.4-36.05Q9.65-36.25 10.08-36.38 10.5-36.5 11-36.5L11-36.5 18.75-36.5Q19.95-36.5 20.5-35.95 21.05-35.4 21.05-34.2L21.05-34.2 21.05-23.85 21.95-23.85 21.95-28.75Q21.95-29.4 22.13-29.85 22.3-30.3 22.65-30.6L22.65-30.6 29.1-36.05Q29.35-36.25 29.78-36.38 30.2-36.5 30.7-36.5L30.7-36.5 38.45-36.5Q39.65-36.5 40.2-35.95 40.75-35.4 40.75-34.2L40.75-34.2 40.75-1.8Q40.75-1.15 40.58-0.7 40.4-0.25 40.05 0.05L40.05 0.05 33.55 5.45Q33.35 5.65 32.93 5.8 32.5 5.95 32 5.95L32 5.95 24.25 5.95Q23.05 5.95 22.5 5.4 21.95 4.85 21.95 3.65L21.95 3.65 21.95-6.95 21.05-6.95 21.05-1.8Q21.05-1.15 20.88-0.7 20.7-0.25 20.35 0.05ZM57.2-15.15L57.2-15.15 57.2-13.6 76.7-13.6 76.7-15.15Q76.7-16.5 76.47-17.65 76.25-18.8 75.9-19.8L75.9-19.8 72.45-27.95Q71.9-29.25 71.3-30.13 70.7-31 69.3-31L69.3-31 64.4-31Q62.9-31 62.3-30.13 61.7-29.25 61.2-28L61.2-28 58-19.8Q57.65-18.8 57.42-17.65 57.2-16.5 57.2-15.15ZM62.85-17.9L65.2-25.5Q65.4-25.95 65.62-26.15 65.85-26.35 66.15-26.35L66.15-26.35 67.4-26.35Q67.7-26.35 67.92-26.15 68.15-25.95 68.35-25.5L68.35-25.5 70.7-17.9 62.85-17.9ZM77.2-4.5L76.7-4.5 76.7-13.1 57.2-13.1 57.2-4.5 56.7-4.5 56.7-15.15Q56.7-16.55 56.92-17.73 57.15-18.9 57.55-20L57.55-20 60.75-28.2Q61.3-29.6 62-30.55 62.7-31.5 64.4-31.5L64.4-31.5 69.3-31.5Q70.95-31.5 71.62-30.55 72.3-29.6 72.9-28.15L72.9-28.15 76.35-20Q76.75-18.9 76.97-17.73 77.2-16.55 77.2-15.15L77.2-15.15 77.2-4.5ZM62.35-1.8L62.35-1.8 62.35-8.8 71.2-8.8 71.2-1.8Q71.2-0.85 71.67-0.43 72.15 0 73.15 0L73.15 0 80.7 0Q81.65 0 82.07-0.43 82.5-0.85 82.5-1.8L82.5-1.8 82.5-15Q82.5-16.5 82.02-18.45 81.55-20.4 80.55-23L80.55-23 76.2-34.35Q75.9-35.2 75.27-35.6 74.65-36 73.7-36L73.7-36 60.25-36Q59.25-36 58.62-35.6 58-35.2 57.7-34.35L57.7-34.35 53.35-23Q52.35-20.4 51.87-18.45 51.4-16.5 51.4-15L51.4-15 51.4-1.8Q51.4-0.85 51.82-0.43 52.25 0 53.2 0L53.2 0 60.55 0Q61.5 0 61.92-0.43 62.35-0.85 62.35-1.8ZM62.15 0.05L55.65 5.45Q55.45 5.65 55.02 5.8 54.6 5.95 54.1 5.95L54.1 5.95 46.75 5.95Q45.55 5.95 45 5.4 44.45 4.85 44.45 3.65L44.45 3.65 44.45-9.55Q44.45-11.1 44.92-13.08 45.4-15.05 46.45-17.75L46.45-17.75 50.75-29.05Q50.9-29.5 51.12-29.83 51.35-30.15 51.6-30.4L51.6-30.4 51.65-30.45 58.05-35.8Q58.45-36.15 59-36.33 59.55-36.5 60.25-36.5L60.25-36.5 73.7-36.5Q74.85-36.5 75.57-36.02 76.3-35.55 76.65-34.55L76.65-34.55 81-23.2Q82.05-20.5 82.52-18.53 83-16.55 83-15L83-15 83-1.8Q83-1.15 82.82-0.7 82.65-0.25 82.3 0.05L82.3 0.05 75.8 5.45Q75.6 5.65 75.17 5.8 74.75 5.95 74.25 5.95L74.25 5.95 66.7 5.95Q65.45 5.95 64.85 5.38 64.25 4.8 64.25 3.65L64.25 3.65 64.25-2.85 62.85-2.85 62.85-1.8Q62.85-1.15 62.67-0.7 62.5-0.25 62.15 0.05L62.15 0.05ZM103.9 5.95L88.1 5.95Q86.9 5.95 86.35 5.4 85.8 4.85 85.8 3.65L85.8 3.65 85.8-2.2Q85.8-2.85 85.97-3.3 86.15-3.75 86.5-4.05L86.5-4.05 91.5-8.25Q88.85-9.05 87.32-10.98 85.8-12.9 85.8-16.5L85.8-16.5 85.8-21.75Q85.8-24 86.55-25.75 87.3-27.5 88.7-28.7L88.7-28.7 95.2-34.15Q96.55-35.25 98.55-35.88 100.55-36.5 103.1-36.5L103.1-36.5 117.09-36.5Q118.3-36.5 118.84-35.95 119.4-35.4 119.4-34.2L119.4-34.2 119.4-28.25Q119.4-27.6 119.22-27.15 119.05-26.7 118.7-26.4L118.7-26.4 114.2-22.65Q117.34-21.95 119.27-20.03 121.2-18.1 121.2-14.05L121.2-14.05 121.2-8.8Q121.2-6.55 120.45-4.8 119.7-3.05 118.25-1.85L118.25-1.85 111.8 3.55Q110.4 4.7 108.4 5.33 106.4 5.95 103.9 5.95L103.9 5.95ZM94.55 0L110.35 0Q115.15 0 117.92-2.27 120.7-4.55 120.7-8.8L120.7-8.8 120.7-14.05Q120.7-18.25 118.55-20.05 116.4-21.85 112.9-22.35L112.9-22.35 105.45-23.35Q104.8-23.4 104.45-23.85 104.1-24.3 104.1-24.95L104.1-24.95Q104.1-25.6 104.45-26.03 104.8-26.45 105.45-26.45L105.45-26.45 117.09-26.45Q118.05-26.45 118.47-26.88 118.9-27.3 118.9-28.25L118.9-28.25 118.9-34.2Q118.9-35.15 118.47-35.58 118.05-36 117.09-36L117.09-36 103.1-36Q98.25-36 95.5-33.73 92.75-31.45 92.75-27.2L92.75-27.2 92.75-21.95Q92.75-17.75 94.87-15.95 97-14.15 100.5-13.65L100.5-13.65 108-12.6Q108.65-12.55 108.97-12.15 109.3-11.75 109.3-10.9L109.3-10.9Q109.3-10.3 108.97-9.88 108.65-9.45 108-9.45L108-9.45 94.55-9.45Q93.6-9.45 93.17-9.03 92.75-8.6 92.75-7.65L92.75-7.65 92.75-1.8Q92.75-0.85 93.17-0.43 93.6 0 94.55 0L94.55 0ZM103.3-31.5L114.4-31.5 114.4-31 103.3-31Q101.2-31 99.95-29.85 98.7-28.7 98.7-26.95L98.7-26.95 98.7-22.85Q98.7-21.1 99.4-20.4 100.1-19.7 101.25-19.5L101.25-19.5 111.8-17.35Q113.3-17.05 114.27-16.05 115.25-15.05 115.25-12.45L115.25-12.45 115.25-9.55Q115.25-7.35 113.75-5.93 112.25-4.5 109.7-4.5L109.7-4.5 97.25-4.5 97.25-5 109.7-5Q112-5 113.37-6.28 114.75-7.55 114.75-9.55L114.75-9.55 114.75-12.45Q114.75-14.8 113.92-15.68 113.1-16.55 111.7-16.85L111.7-16.85 101.15-19Q99.85-19.25 99.02-20.03 98.2-20.8 98.2-22.85L98.2-22.85 98.2-26.95Q98.2-28.95 99.6-30.23 101-31.5 103.3-31.5L103.3-31.5ZM141.14 5.95L125.34 5.95Q124.14 5.95 123.59 5.4 123.04 4.85 123.04 3.65L123.04 3.65 123.04-2.2Q123.04-2.85 123.22-3.3 123.39-3.75 123.74-4.05L123.74-4.05 128.74-8.25Q126.09-9.05 124.57-10.98 123.04-12.9 123.04-16.5L123.04-16.5 123.04-21.75Q123.04-24 123.79-25.75 124.54-27.5 125.94-28.7L125.94-28.7 132.44-34.15Q133.79-35.25 135.79-35.88 137.79-36.5 140.34-36.5L140.34-36.5 154.34-36.5Q155.54-36.5 156.09-35.95 156.64-35.4 156.64-34.2L156.64-34.2 156.64-28.25Q156.64-27.6 156.47-27.15 156.29-26.7 155.94-26.4L155.94-26.4 151.44-22.65Q154.59-21.95 156.52-20.03 158.44-18.1 158.44-14.05L158.44-14.05 158.44-8.8Q158.44-6.55 157.69-4.8 156.94-3.05 155.49-1.85L155.49-1.85 149.04 3.55Q147.64 4.7 145.64 5.33 143.64 5.95 141.14 5.95L141.14 5.95ZM131.79 0L147.59 0Q152.39 0 155.17-2.27 157.94-4.55 157.94-8.8L157.94-8.8 157.94-14.05Q157.94-18.25 155.79-20.05 153.64-21.85 150.14-22.35L150.14-22.35 142.69-23.35Q142.04-23.4 141.69-23.85 141.34-24.3 141.34-24.95L141.34-24.95Q141.34-25.6 141.69-26.03 142.04-26.45 142.69-26.45L142.69-26.45 154.34-26.45Q155.29-26.45 155.72-26.88 156.14-27.3 156.14-28.25L156.14-28.25 156.14-34.2Q156.14-35.15 155.72-35.58 155.29-36 154.34-36L154.34-36 140.34-36Q135.49-36 132.74-33.73 129.99-31.45 129.99-27.2L129.99-27.2 129.99-21.95Q129.99-17.75 132.12-15.95 134.24-14.15 137.74-13.65L137.74-13.65 145.24-12.6Q145.89-12.55 146.22-12.15 146.54-11.75 146.54-10.9L146.54-10.9Q146.54-10.3 146.22-9.88 145.89-9.45 145.24-9.45L145.24-9.45 131.79-9.45Q130.84-9.45 130.42-9.03 129.99-8.6 129.99-7.65L129.99-7.65 129.99-1.8Q129.99-0.85 130.42-0.43 130.84 0 131.79 0L131.79 0ZM140.54-31.5L151.64-31.5 151.64-31 140.54-31Q138.44-31 137.19-29.85 135.94-28.7 135.94-26.95L135.94-26.95 135.94-22.85Q135.94-21.1 136.64-20.4 137.34-19.7 138.49-19.5L138.49-19.5 149.04-17.35Q150.54-17.05 151.52-16.05 152.49-15.05 152.49-12.45L152.49-12.45 152.49-9.55Q152.49-7.35 150.99-5.93 149.49-4.5 146.94-4.5L146.94-4.5 134.49-4.5 134.49-5 146.94-5Q149.24-5 150.62-6.28 151.99-7.55 151.99-9.55L151.99-9.55 151.99-12.45Q151.99-14.8 151.17-15.68 150.34-16.55 148.94-16.85L148.94-16.85 138.39-19Q137.09-19.25 136.27-20.03 135.44-20.8 135.44-22.85L135.44-22.85 135.44-26.95Q135.44-28.95 136.84-30.23 138.24-31.5 140.54-31.5L140.54-31.5ZM186.94 5.95L186.94 5.95 163.74 5.95Q162.54 5.95 161.99 5.4 161.44 4.85 161.44 3.65L161.44 3.65 161.44-28.75Q161.44-29.4 161.62-29.85 161.79-30.3 162.14-30.6L162.14-30.6 168.59-36.05Q168.84-36.25 169.26-36.38 169.69-36.5 170.19-36.5L170.19-36.5 193.39-36.5Q194.59-36.5 195.14-35.95 195.69-35.4 195.69-34.2L195.69-34.2 195.69-28.35Q195.69-27.7 195.51-27.25 195.34-26.8 194.99-26.5L194.99-26.5 190.69-22.95Q191.19-22.7 191.41-22.2 191.64-21.7 191.64-20.9L191.64-20.9 191.64-15.55Q191.64-14.9 191.47-14.45 191.29-14 190.94-13.7L190.94-13.7 186.49-9.95 193.39-9.95Q194.59-9.95 195.14-9.4 195.69-8.85 195.69-7.65L195.69-7.65 195.69-1.8Q195.69-1.15 195.51-0.7 195.34-0.25 194.99 0.05L194.99 0.05 188.49 5.45Q188.29 5.65 187.87 5.8 187.44 5.95 186.94 5.95ZM170.19 0L193.39 0Q194.34 0 194.76-0.43 195.19-0.85 195.19-1.8L195.19-1.8 195.19-7.65Q195.19-8.6 194.76-9.03 194.34-9.45 193.39-9.45L193.39-9.45 179.59-9.45 179.59-13.75 189.34-13.75Q190.29-13.75 190.72-14.18 191.14-14.6 191.14-15.55L191.14-15.55 191.14-20.9Q191.14-21.85 190.72-22.28 190.29-22.7 189.34-22.7L189.34-22.7 179.59-22.7 179.59-26.55 193.39-26.55Q194.34-26.55 194.76-26.98 195.19-27.4 195.19-28.35L195.19-28.35 195.19-34.2Q195.19-35.15 194.76-35.58 194.34-36 193.39-36L193.39-36 170.19-36Q169.24-36 168.81-35.58 168.39-35.15 168.39-34.2L168.39-34.2 168.39-1.8Q168.39-0.85 168.81-0.43 169.24 0 170.19 0L170.19 0ZM174.34-5L190.69-5 190.69-4.5 173.84-4.5 173.84-31.5 190.69-31.5 190.69-31 174.34-31 174.34-18.45 186.64-18.45 186.64-17.95 174.34-17.95 174.34-5ZM226.89 5.95L226.89 5.95 201.44 5.95Q200.24 5.95 199.69 5.4 199.14 4.85 199.14 3.65L199.14 3.65 199.14-28.75Q199.14-29.4 199.31-29.85 199.49-30.3 199.84-30.6L199.84-30.6 206.29-36.05Q206.54-36.25 206.96-36.38 207.39-36.5 207.89-36.5L207.89-36.5 215.64-36.5Q216.84-36.5 217.39-35.95 217.94-35.4 217.94-34.2L217.94-34.2 217.94-13.85 218.04-13.95 224.49-19.4Q224.74-19.6 225.16-19.73 225.59-19.85 226.09-19.85L226.09-19.85 233.34-19.85Q234.54-19.85 235.09-19.3 235.64-18.75 235.64-17.55L235.64-17.55 235.64-1.8Q235.64-1.15 235.46-0.7 235.29-0.25 234.94 0.05L234.94 0.05 228.44 5.45Q228.24 5.65 227.81 5.8 227.39 5.95 226.89 5.95ZM207.89 0L233.34 0Q234.29 0 234.71-0.43 235.14-0.85 235.14-1.8L235.14-1.8 235.14-17.55Q235.14-18.5 234.71-18.93 234.29-19.35 233.34-19.35L233.34-19.35 226.09-19.35Q225.14-19.35 224.71-18.93 224.29-18.5 224.29-17.55L224.29-17.55 224.29-9.45 217.44-9.45 217.44-34.2Q217.44-35.15 217.01-35.58 216.59-36 215.64-36L215.64-36 207.89-36Q206.94-36 206.51-35.58 206.09-35.15 206.09-34.2L206.09-34.2 206.09-1.8Q206.09-0.85 206.51-0.43 206.94 0 207.89 0L207.89 0ZM229.94-4.5L211.54-4.5 211.54-31.5 212.04-31.5 212.04-5 229.44-5 229.44-14.85 229.94-14.85 229.94-4.5ZM248.94 5.95L248.94 5.95 241.19 5.95Q239.98 5.95 239.44 5.4 238.88 4.85 238.88 3.65L238.88 3.65 238.88-28.75Q238.88-29.4 239.06-29.85 239.23-30.3 239.58-30.6L239.58-30.6 246.03-36.05Q246.28-36.25 246.71-36.38 247.13-36.5 247.63-36.5L247.63-36.5 269.94-36.5Q271.13-36.5 271.69-35.95 272.24-35.4 272.24-34.2L272.24-34.2 272.24-28.25Q272.24-27.6 272.06-27.15 271.88-26.7 271.53-26.4L271.53-26.4 265.94-21.75Q267.08-21.75 267.63-21.2 268.19-20.65 268.19-19.45L268.19-19.45 268.19-13.45Q268.19-12.8 268.01-12.35 267.83-11.9 267.49-11.6L267.49-11.6 260.99-6.2Q260.78-6 260.36-5.85 259.94-5.7 259.44-5.7L259.44-5.7 257.69-5.7 257.69-1.8Q257.69-1.15 257.51-0.7 257.33-0.25 256.99 0.05L256.99 0.05 250.48 5.45Q250.28 5.65 249.86 5.8 249.44 5.95 248.94 5.95ZM247.63 0L255.38 0Q256.33 0 256.76-0.43 257.19-0.85 257.19-1.8L257.19-1.8 257.19-11.65 265.88-11.65Q266.83-11.65 267.26-12.08 267.69-12.5 267.69-13.45L267.69-13.45 267.69-19.45Q267.69-20.4 267.26-20.83 266.83-21.25 265.88-21.25L265.88-21.25 257.19-21.25 257.19-26.45 269.94-26.45Q270.88-26.45 271.31-26.88 271.74-27.3 271.74-28.25L271.74-28.25 271.74-34.2Q271.74-35.15 271.31-35.58 270.88-36 269.94-36L269.94-36 247.63-36Q246.69-36 246.26-35.58 245.83-35.15 245.83-34.2L245.83-34.2 245.83-1.8Q245.83-0.85 246.26-0.43 246.69 0 247.63 0L247.63 0ZM251.78-4.5L251.28-4.5 251.28-31.5 267.24-31.5 267.24-31 251.78-31 251.78-16.7 263.19-16.7 263.19-16.2 251.78-16.2 251.78-4.5ZM298.53-31L298.53-31 287.63-31 287.63-16.55 298.53-16.55Q301.63-16.55 302.68-18.05 303.73-19.55 303.73-22.3L303.73-22.3 303.73-25.8Q303.73-28.1 302.46-29.55 301.18-31 298.53-31ZM293.03-20.6L293.03-27 296.78-27Q298.08-27 298.53-26.33 298.98-25.65 298.98-24.65L298.98-24.65 298.98-22.95Q298.98-21.95 298.53-21.28 298.08-20.6 296.78-20.6L296.78-20.6 293.03-20.6ZM287.63-16.1L287.63-4.5 287.13-4.5 287.13-31.5 298.53-31.5Q301.43-31.5 302.83-29.88 304.23-28.25 304.23-25.8L304.23-25.8 304.23-22.35Q304.23-20.05 303.63-18.57 303.03-17.1 301.23-16.55L301.23-16.55 301.78-16.55Q304.83-16.55 306.33-15.18 307.83-13.8 307.83-11.2L307.83-11.2 307.83-4.5 307.33-4.5 307.33-11.2Q307.33-13.65 305.98-14.88 304.63-16.1 301.78-16.1L301.78-16.1 287.63-16.1ZM283.53 0L291.23 0Q292.18 0 292.61-0.43 293.03-0.85 293.03-1.8L293.03-1.8 293.03-11.6 300.03-11.6Q301.08-11.6 301.51-11.08 301.93-10.55 301.93-9.45L301.93-9.45 301.93-1.8Q301.93-0.85 302.36-0.43 302.78 0 303.73 0L303.73 0 311.48 0Q312.43 0 312.86-0.43 313.28-0.85 313.28-1.8L313.28-1.8 313.28-12.4Q313.28-15.55 311.61-17.45 309.93-19.35 307.23-19.65L307.23-19.65Q308.78-20.3 309.41-21.78 310.03-23.25 310.03-25.35L310.03-25.35 310.03-27.65Q310.03-31.35 307.91-33.68 305.78-36 300.18-36L300.18-36 283.53-36Q282.58-36 282.16-35.58 281.73-35.15 281.73-34.2L281.73-34.2 281.73-1.8Q281.73-0.85 282.16-0.43 282.58 0 283.53 0L283.53 0ZM292.83 0.05L292.83 0.05 286.33 5.45Q286.13 5.65 285.71 5.8 285.28 5.95 284.78 5.95L284.78 5.95 277.08 5.95Q275.88 5.95 275.33 5.4 274.78 4.85 274.78 3.65L274.78 3.65 274.78-28.75Q274.78-29.4 274.96-29.85 275.13-30.3 275.48-30.6L275.48-30.6 281.93-36.05Q282.18-36.25 282.61-36.38 283.03-36.5 283.53-36.5L283.53-36.5 300.18-36.5Q306.13-36.5 308.33-34.02 310.53-31.55 310.53-27.65L310.53-27.65 310.53-25.35Q310.53-23.5 310.08-22.13 309.63-20.75 308.63-19.9L308.63-19.9 308.58-19.9Q310.93-19.25 312.36-17.3 313.78-15.35 313.78-12.4L313.78-12.4 313.78-1.8Q313.78-1.15 313.61-0.7 313.43-0.25 313.08 0.05L313.08 0.05 306.58 5.45Q306.38 5.65 305.96 5.8 305.53 5.95 305.03 5.95L305.03 5.95 297.28 5.95Q296.08 5.95 295.53 5.4 294.98 4.85 294.98 3.65L294.98 3.65 294.98-4Q294.98-4.8 294.68-5.23 294.38-5.65 293.58-5.65L293.58-5.65 293.53-5.65 293.53-1.8Q293.53-1.15 293.36-0.7 293.18-0.25 292.83 0.05ZM342.43 5.95L342.43 5.95 319.23 5.95Q318.03 5.95 317.48 5.4 316.93 4.85 316.93 3.65L316.93 3.65 316.93-28.75Q316.93-29.4 317.11-29.85 317.28-30.3 317.63-30.6L317.63-30.6 324.08-36.05Q324.33-36.25 324.75-36.38 325.18-36.5 325.68-36.5L325.68-36.5 348.88-36.5Q350.08-36.5 350.63-35.95 351.18-35.4 351.18-34.2L351.18-34.2 351.18-28.35Q351.18-27.7 351-27.25 350.83-26.8 350.48-26.5L350.48-26.5 346.18-22.95Q346.68-22.7 346.91-22.2 347.13-21.7 347.13-20.9L347.13-20.9 347.13-15.55Q347.13-14.9 346.95-14.45 346.78-14 346.43-13.7L346.43-13.7 341.98-9.95 348.88-9.95Q350.08-9.95 350.63-9.4 351.18-8.85 351.18-7.65L351.18-7.65 351.18-1.8Q351.18-1.15 351-0.7 350.83-0.25 350.48 0.05L350.48 0.05 343.98 5.45Q343.78 5.65 343.36 5.8 342.93 5.95 342.43 5.95ZM325.68 0L348.88 0Q349.83 0 350.25-0.43 350.68-0.85 350.68-1.8L350.68-1.8 350.68-7.65Q350.68-8.6 350.25-9.03 349.83-9.45 348.88-9.45L348.88-9.45 335.08-9.45 335.08-13.75 344.83-13.75Q345.78-13.75 346.2-14.18 346.63-14.6 346.63-15.55L346.63-15.55 346.63-20.9Q346.63-21.85 346.2-22.28 345.78-22.7 344.83-22.7L344.83-22.7 335.08-22.7 335.08-26.55 348.88-26.55Q349.83-26.55 350.25-26.98 350.68-27.4 350.68-28.35L350.68-28.35 350.68-34.2Q350.68-35.15 350.25-35.58 349.83-36 348.88-36L348.88-36 325.68-36Q324.73-36 324.31-35.58 323.88-35.15 323.88-34.2L323.88-34.2 323.88-1.8Q323.88-0.85 324.31-0.43 324.73 0 325.68 0L325.68 0ZM329.83-5L346.18-5 346.18-4.5 329.33-4.5 329.33-31.5 346.18-31.5 346.18-31 329.83-31 329.83-18.45 342.13-18.45 342.13-17.95 329.83-17.95 329.83-5ZM380.13 5.95L380.13 5.95 356.93 5.95Q355.73 5.95 355.18 5.4 354.63 4.85 354.63 3.65L354.63 3.65 354.63-28.75Q354.63-29.4 354.8-29.85 354.98-30.3 355.33-30.6L355.33-30.6 361.78-36.05Q362.03-36.25 362.45-36.38 362.88-36.5 363.38-36.5L363.38-36.5 386.58-36.5Q387.78-36.5 388.33-35.95 388.88-35.4 388.88-34.2L388.88-34.2 388.88-28.35Q388.88-27.7 388.7-27.25 388.53-26.8 388.18-26.5L388.18-26.5 383.88-22.95Q384.38-22.7 384.6-22.2 384.83-21.7 384.83-20.9L384.83-20.9 384.83-15.55Q384.83-14.9 384.65-14.45 384.48-14 384.13-13.7L384.13-13.7 379.68-9.95 386.58-9.95Q387.78-9.95 388.33-9.4 388.88-8.85 388.88-7.65L388.88-7.65 388.88-1.8Q388.88-1.15 388.7-0.7 388.53-0.25 388.18 0.05L388.18 0.05 381.68 5.45Q381.48 5.65 381.05 5.8 380.63 5.95 380.13 5.95ZM363.38 0L386.58 0Q387.53 0 387.95-0.43 388.38-0.85 388.38-1.8L388.38-1.8 388.38-7.65Q388.38-8.6 387.95-9.03 387.53-9.45 386.58-9.45L386.58-9.45 372.78-9.45 372.78-13.75 382.53-13.75Q383.48-13.75 383.9-14.18 384.33-14.6 384.33-15.55L384.33-15.55 384.33-20.9Q384.33-21.85 383.9-22.28 383.48-22.7 382.53-22.7L382.53-22.7 372.78-22.7 372.78-26.55 386.58-26.55Q387.53-26.55 387.95-26.98 388.38-27.4 388.38-28.35L388.38-28.35 388.38-34.2Q388.38-35.15 387.95-35.58 387.53-36 386.58-36L386.58-36 363.38-36Q362.43-36 362-35.58 361.58-35.15 361.58-34.2L361.58-34.2 361.58-1.8Q361.58-0.85 362-0.43 362.43 0 363.38 0L363.38 0ZM367.53-5L383.88-5 383.88-4.5 367.03-4.5 367.03-31.5 383.88-31.5 383.88-31 367.53-31 367.53-18.45 379.83-18.45 379.83-17.95 367.53-17.95 367.53-5Z" opacity="1" transform="matrix(1,0,0,1,0,0)" fill="#ffffff" class="undefined-text-1" data-fill-palette-color="secondary" id="text-1"></path></svg></g></svg></g></svg></g></svg></g><g transform="matrix(1,0,0,1,118.75958449177924,0)"><svg viewBox="0 0 158.0008310164415 142.0008310164415" height="142.0008310164415" width="158.0008310164415"><g><svg xmlns="http://www.w3.org/2000/svg" xmlns:xlink="http://www.w3.org/1999/xlink" version="1.1" x="8" y="0" viewBox="0 0 100 100" enable-background="new 0 0 100 100" xml:space="preserve" height="142.0008310164415" width="142.0008310164415" class="icon-icon-0" data-fill-palette-color="accent" id="icon-0"><g fill="#ffffff" data-fill-palette-color="accent"><path d="M56.357 27.865l-3.593 3.592 5.233 5.232 3.592-3.592L56.357 27.865zM66.852 38.361l-3.591 3.591 5.232 5.232 3.592-3.592L66.852 38.361zM63.429 0l10.937 10.936c-3.548 4.094-3.376 10.294 0.515 14.185 3.89 3.89 10.09 4.061 14.185 0.514L100 36.571 82.532 54.04l-5.184-5.185-3.593 3.592 5.184 5.184L36.571 100 25.538 88.966c2.823-4.062 2.425-9.687-1.195-13.306-3.624-3.623-9.247-4.021-13.309-1.197L0 63.429l42.369-42.368 5.134 5.134 3.591-3.592-5.134-5.134L63.429 0z" fill="#ffffff" data-fill-palette-color="accent"></path></g></svg></g></svg></g><g><rect width="52.997328462435604" height="5.538519503017379" y="135.46231151342414" x="276.7604155082207" fill="#ffffff" data-fill-palette-color="accent"></rect><rect width="52.997328462435604" height="5.538519503017379" y="135.46231151342414" x="65.76225602934363" fill="#ffffff" data-fill-palette-color="accent"></rect><rect width="52.997328462435604" height="5.538519503017379" y="124.38527250738937" x="276.7604155082207" fill="#ffffff" data-fill-palette-color="accent"></rect><rect width="52.997328462435604" height="5.538519503017379" y="124.38527250738937" x="65.76225602934363" fill="#ffffff" data-fill-palette-color="accent"></rect></g></svg></g></svg></g></svg></g><defs></defs></svg><rect width="395.52" height="247.2" fill="none" stroke="none" visibility="hidden"></rect></g></svg></g></svg>